<svg xmlns="http://www.w3.org/2000/svg" width="368" height="117" viewBox="0 0 368 117" version="1.1"><path transform="matrix(1,0,0,1,0,0)" d="M 88.7 5.5 C 75.9 8.3 66.4 17.4 66.3 27.1 C 66.2 29.4 66.2 29.5 65.2 27.7 C 61.3 20.9 53.8 17.5 45 18.9 C 42.1 19.4 38.9 20.2 37.9 20.8 L 35.9 21.8 L 38.1 23.8 C 39.3 24.9 41.7 27.8 43.4 30.3 C 48.2 37.2 53.3 39 60.1 36.2 L 63.5 34.8 L 61.6 31.7 C 59.2 27.7 57.5 26.2 52.6 23.7 C 47.8 21.3 50.2 21.1 55.4 23.5 C 60.5 25.8 63.2 28.8 65.3 34.8 C 66.4 37.5 67.2 39.9 67.2 40 C 67.2 40.2 64.2 40.3 60.6 40.3 L 54 40.3 L 54 76.2 L 54 112 L 62.5 112 L 71 112 L 71 98.2 L 71 84.3 L 75.7 86.6 C 80.8 89.1 90.2 89.7 95.1 87.8 C 99.2 86.3 104.6 81.7 106.5 78.1 C 107.6 76.2 108.6 74.8 109 74.8 C 109.4 74.8 110.1 76.1 110.8 77.6 C 112.2 81 117.5 85.7 122 87.5 C 126.9 89.5 136.4 89.2 140.9 87 C 143.1 85.8 145 84.6 145.4 84.1 C 146.4 82.4 147.7 83.1 147.7 85.5 C 147.7 87.8 147.8 87.8 155.8 87.8 L 163.8 87.8 L 163.8 47.8 L 163.8 7.7 L 155.3 7.7 L 146.8 7.7 L 146.8 26 L 146.8 44.1 L 144.4 42.4 C 141.2 39.8 133.3 38.1 128.2 38.8 C 120.9 39.8 114 44.4 109.9 51.2 C 108.9 52.8 108.9 52.8 107.9 51.2 C 102.8 43 95.9 39 86.6 38.9 C 80.6 38.9 79.3 39.3 75 41.9 C 70.5 44.7 70.1 44.8 70.1 43 C 70.1 42 69.5 40.6 68.9 39.8 C 67.2 38.3 68.4 28.8 70.7 24.2 C 73.2 19.2 78.8 14.1 85 11.4 C 92.8 7.8 97.2 7.7 90 11.3 C 80.5 15.8 75 23.2 72.5 34.4 C 71.9 37.1 72.1 37.5 74.5 38.1 C 76 38.4 79.9 38.3 83.3 37.7 C 91.7 36.3 95.2 32.6 99 21 C 100.4 16.6 102.4 11.3 103.4 9.3 C 104.5 7.3 105 5.5 104.7 5.2 C 103.5 4 94.7 4.2 88.7 5.5 M 192.9 39.4 C 191.4 39.8 188.7 41.2 186.9 42.6 L 183.7 45.1 L 183.7 42.7 C 183.7 40.3 183.7 40.3 175.2 40.3 L 166.7 40.3 L 166.7 64.1 L 166.7 87.8 L 175.2 87.8 L 183.7 87.8 L 183.7 73.2 C 183.7 57.2 184.4 54.6 188.7 52.6 C 190.7 51.7 192.1 51.6 194.3 52.3 C 199.4 54.1 199.7 55.2 199.8 72.2 L 199.8 87.8 L 208.3 87.8 L 216.9 87.8 L 216.9 72.5 C 216.9 57.7 217 57.1 219.1 54.6 C 222.1 51.2 227.1 51.1 230.6 54.3 C 233 56.4 233 56.6 233 72.2 L 233 87.8 L 241.5 87.8 L 250 87.8 L 250 69.6 C 250 49.2 249.4 46.7 244.2 42.9 C 235.9 36.8 226.7 37.1 218.9 43.7 L 215 47 L 212.5 44.1 C 208.7 39.7 199.4 37.4 192.9 39.4 M 77.7 53.4 C 71.6 55.9 68.9 61.5 71 67.7 C 72.5 72.4 76 74.8 81.4 74.8 C 86.4 74.8 89.3 73.1 91.4 69.2 C 94.3 63.7 92.1 56.4 86.7 53.9 C 83.2 52.2 81.1 52.1 77.7 53.4 M 132.9 53.1 C 131.7 53.3 129.5 54.9 127.8 56.8 C 125.1 59.9 124.8 60.6 125.3 64.9 C 125.9 71.4 129.6 74.8 136.5 74.8 C 140.4 74.8 141.7 74.3 143.9 72.1 C 152.3 63.9 144.6 50.6 132.9 53.1" stroke="none" fill="#06bc65" fill-rule="evenodd"/>
</svg>